/* XPM */
static char *default_pikachu_frame_6[] = {
/* columns rows colors chars-per-pixel */
"25 25 161 2 ",
"   c None",
".  c #38352F",
"X  c #3A382F",
"o  c #2A3135",
"O  c #3E3D32",
"+  c #4B3E1E",
"@  c #4E3C1E",
"#  c #423621",
"$  c #453726",
"%  c #4A3A22",
"&  c #66541E",
"*  c #765C15",
"=  c #7E6B17",
"-  c #706219",
";  c #71681D",
":  c #464527",
">  c #4F4622",
",  c #5B5529",
"<  c #6E6624",
"1  c #94780C",
"2  c #9C7E0C",
"3  c #876418",
"4  c #87741A",
"5  c #8B7319",
"6  c #877D1D",
"7  c #8D7919",
"8  c #8D781A",
"9  c #887F1D",
"0  c #9C7714",
"q  c #957F16",
"w  c #977E16",
"e  c #997A14",
"r  c #DA7D0E",
"t  c #8C831C",
"y  c #9B8015",
"u  c #998215",
"i  c #9A8316",
"p  c #928718",
"a  c #948C19",
"s  c #95881F",
"d  c #9B9117",
"f  c #B58F0F",
"g  c #AA920B",
"h  c #AB940A",
"j  c #A48212",
"k  c #A88613",
"l  c #AE9111",
"z  c #AE9713",
"x  c #A59A14",
"c  c #A39D14",
"v  c #AA9916",
"b  c #A3931C",
"n  c #A7961D",
"m  c #AB9B1B",
"M  c #B09412",
"N  c #B59A12",
"B  c #B59C11",
"V  c #B79D10",
"C  c #B79F11",
"Z  c #BAA40F",
"A  c #B9AF0F",
"S  c #ABA012",
"D  c #ACA615",
"F  c #BBA611",
"G  c #B1A913",
"H  c #B4AA11",
"J  c #B9A811",
"K  c #8D8121",
"L  c #C29F0A",
"P  c #DC910A",
"I  c #DD8112",
"U  c #E1970B",
"Y  c #C6AA01",
"T  c #C2A804",
"R  c #C6AE07",
"E  c #C5AA0D",
"W  c #C4AE0D",
"Q  c #C6AC0E",
"!  c #C8AA0C",
"~  c #C7B10F",
"^  c #CFB309",
"/  c #C4B80D",
"(  c #C6BA0C",
")  c #C9BD0C",
"_  c #D8BE01",
"`  c #DCBF06",
"'  c #D7B609",
"]  c #D9B208",
"[  c #D3B90B",
"{  c #D5B809",
"}  c #D1BE09",
"|  c #D1BF0A",
" . c #D5BE0A",
".. c #C9B511",
"X. c #CEB413",
"o. c #E3BE06",
"O. c #E8B709",
"+. c #E9BE0B",
"@. c #E2B110",
"#. c #CDC00B",
"$. c #CFC00A",
"%. c #D8C001",
"&. c #DFC901",
"*. c #DBC907",
"=. c #DFCD07",
"-. c #DCCE07",
";. c #D4C00A",
":. c #D3C409",
">. c #D1C70A",
",. c #D2C50C",
"<. c #D9C209",
"1. c #DCC30A",
"2. c #D7CB08",
"3. c #DAC809",
"4. c #E4CF00",
"5. c #E5CB04",
"6. c #E4CE05",
"7. c #F1CD05",
"8. c #E7D301",
"9. c #E6D207",
"0. c #E4D405",
"q. c #ECD403",
"w. c #EDD702",
"e. c #EED602",
"r. c #E9D505",
"t. c #E8D705",
"y. c #E5D904",
"u. c #E6DA05",
"i. c #E5D806",
"p. c #EADB03",
"a. c #EDDB01",
"s. c #EEDD01",
"d. c #ECDD03",
"f. c #EDDD03",
"g. c #EFDD03",
"h. c #EFDD04",
"j. c #ECDE04",
"k. c #F0D702",
"l. c #F2DA01",
"z. c #EFE203",
"x. c #EDE004",
"c. c #F3E101",
"v. c #F2E102",
"b. c #F3E202",
"n. c #F4E201",
"m. c #F2E602",
"M. c #F4E401",
"N. c #F5E501",
"B. c #F6E501",
"V. c #F5E701",
"C. c #F6E601",
"Z. c #F6E701",
"A. c #F7E701",
"S. c #F6E801",
"D. c #F7E801",
"F. c #F6E901",
"G. c #F7E901",
"H. c #F8EA01",
"J. c #F8EB01",
"K. c #FAEB00",
"L. c #F9ED00",
/* pixels */
"                                                  ",
"                                                  ",
"                                                  ",
"                                                  ",
"                                                  ",
"0.-.( (                                           ",
"u.u.j.u.H 6                                       ",
"D G #.2.A d                   o O                 ",
"      c a 6                   : 4 j 0             ",
"        S x p                 , F <.{ W } #.J     ",
"          ; -             = & 7 E 1.9.t.s.p.*.~   ",
"          > + @       * h g 1 R 6.t.s.C.L.m.,.m   ",
"            # % . < u 2 T %.Y 4.C.C.C.n.7.+.X.n K ",
"              $ X t } _ &.a.8.s.C.F.H.l.U I @...s ",
"                  ) x.C.C.F.H.F.F.F.H.k.P r O.3.b ",
"                  >.z.H.F.F.F.C.C.C.C.e.o.] ! C   ",
"                  >.s.F.F.C.v.e.5.5.e.' f e 5     ",
"                  v ;.v.H.s.` L q y ^ { k 3       ",
"                    N  .v.-.C       l V M         ",
"                      z W Z 7                     ",
"                        u q                       ",
"                                                  ",
"                                                  ",
"                                                  ",
"                                                  "
};
