/* XPM */
static char *_000[] = {
/* columns rows colors chars-per-pixel */
"32 32 239 2 ",
"   c None",
".  c #050502",
"X  c #080807",
"o  c #100F0C",
"O  c #101010",
"+  c #151515",
"@  c #2B280D",
"#  c #36320B",
"$  c #3A370F",
"%  c #3C380A",
"&  c #3E3A11",
"*  c #433F09",
"=  c #7C741C",
"-  c #4A4521",
";  c #595429",
":  c #585437",
">  c #625C31",
",  c #DE3519",
"<  c #D4381A",
"1  c #F23211",
"2  c #FD3310",
"3  c #DB4915",
"4  c #E04511",
"5  c #EE4718",
"6  c #F05014",
"7  c #DB6B14",
"8  c #C3751A",
"9  c #DC7415",
"0  c #EB7D16",
"q  c #DE733A",
"w  c #A49116",
"e  c #A79617",
"r  c #AB9E13",
"t  c #A5991F",
"y  c #AA9C1A",
"u  c #BCAC05",
"i  c #BBAD0A",
"p  c #BCAD0B",
"a  c #BCAD0C",
"s  c #AEA119",
"d  c #B2A514",
"f  c #B4A517",
"g  c #B4A31A",
"h  c #B6A51A",
"j  c #B7A918",
"k  c #BDAF19",
"l  c #BDAF1D",
"z  c #958C2C",
"x  c #B98026",
"c  c #A79B21",
"v  c #A79C33",
"b  c #B2A625",
"n  c #B8AB22",
"m  c #BDAF23",
"M  c #BCAF25",
"N  c #BAAE29",
"B  c #B9AE3D",
"V  c #CB981C",
"C  c #E38F18",
"Z  c #E69E1A",
"A  c #EA9F19",
"S  c #C4B409",
"D  c #C0B110",
"F  c #C3B313",
"G  c #CCBD1E",
"H  c #DFB51B",
"J  c #EAA51A",
"K  c #E7AE1D",
"L  c #C1AF21",
"P  c #C3B522",
"I  c #C5B72E",
"U  c #DDBC24",
"Y  c #CEB432",
"T  c #C6BA39",
"R  c #D6C40C",
"E  c #D9C714",
"W  c #DBC910",
"Q  c #DBC911",
"!  c #DFCE11",
"~  c #D0C01B",
"^  c #D9C819",
"/  c #D9C919",
"(  c #DFCE19",
")  c #D8C81D",
"_  c #D9C91D",
"`  c #D9C91F",
"'  c #DECD1D",
"]  c #E5C41E",
"[  c #E4C91E",
"{  c #E0CF1D",
"}  c #E0CF1E",
"|  c #E5D415",
" . c #E8D617",
".. c #E1D01A",
"X. c #E1D01E",
"o. c #E2D11E",
"O. c #E3D11E",
"+. c #E4D31D",
"@. c #E4D31E",
"#. c #E5D31E",
"$. c #E5D41E",
"%. c #E9D718",
"&. c #E8D71E",
"*. c #E9D71F",
"=. c #ECDA19",
"-. c #EDDA1A",
";. c #EBDA1D",
":. c #EAD81F",
">. c #EAD91F",
",. c #EBD91F",
"<. c #EBDA1F",
"1. c #ECDA1C",
"2. c #EED91F",
"3. c #ECDA1F",
"4. c #EEDB1F",
"5. c #EEDC1F",
"6. c #F1D01F",
"7. c #F2D41F",
"8. c #F0DE1D",
"9. c #F1DF1D",
"0. c #F2DF1E",
"q. c #F3E11D",
"w. c #F4E21E",
"e. c #F5E21E",
"r. c #CFC12D",
"t. c #CEC02E",
"y. c #D1C220",
"u. c #D4C525",
"i. c #D7C726",
"p. c #D8C724",
"a. c #D8C927",
"s. c #DBCB26",
"d. c #DFCF25",
"f. c #DDCD26",
"g. c #DFCE27",
"h. c #D2C328",
"j. c #D5C629",
"k. c #D6C629",
"l. c #D4C42A",
"z. c #D5C62A",
"x. c #D0C12C",
"c. c #D7C828",
"v. c #DBCC28",
"b. c #DCCC28",
"n. c #DDCD28",
"m. c #DECD28",
"M. c #DBCC2D",
"N. c #E4D220",
"B. c #E4D320",
"V. c #E4D321",
"C. c #E7D723",
"Z. c #E2D124",
"A. c #E3D224",
"S. c #E3D324",
"D. c #E0D026",
"F. c #E1D026",
"G. c #E1D126",
"H. c #E3D026",
"J. c #E2D226",
"K. c #E3D226",
"L. c #E2D227",
"P. c #E5D424",
"I. c #E6D524",
"U. c #E6D525",
"Y. c #E7D725",
"T. c #E8D720",
"R. c #E9D720",
"E. c #E8D722",
"W. c #EAD922",
"Q. c #EAD923",
"!. c #EDDB20",
"~. c #ECDA22",
"^. c #EDDB23",
"/. c #EFDC20",
"(. c #EEDD20",
"). c #EFDD20",
"_. c #EEDC22",
"`. c #EFDD22",
"'. c #EEDC23",
"]. c #EEDD23",
"[. c #EFDD23",
"{. c #E9D825",
"}. c #EBDA24",
"|. c #EBDA25",
" X c #EBDA26",
".X c #ECDA24",
"XX c #ECDB24",
"oX c #EEDC24",
"OX c #EFDD24",
"+X c #EEDD25",
"@X c #EEDD27",
"#X c #E1D128",
"$X c #E3D22B",
"%X c #E7D628",
"&X c #F1DA21",
"*X c #F0DD20",
"=X c #F0DE20",
"-X c #F0DF20",
";X c #F0DE21",
":X c #F1DF21",
">X c #F2DF20",
",X c #F1DF22",
"<X c #F1DF23",
"1X c #F5DD20",
"2X c #F6DE20",
"3X c #F6DF20",
"4X c #E1CF3F",
"5X c #E8D835",
"6X c #F2E020",
"7X c #F2E021",
"8X c #F3E121",
"9X c #F4E121",
"0X c #F6E120",
"qX c #F4E220",
"wX c #F5E220",
"eX c #F5E320",
"rX c #F4E221",
"tX c #F5E221",
"yX c #F5E321",
"uX c #F6E320",
"iX c #F6E321",
"pX c #F4E122",
"aX c #F4E222",
"sX c #F5E322",
"dX c #F6E322",
"fX c #F6E421",
"gX c #F7E421",
"hX c #F7E521",
"jX c #F5E324",
"kX c #F5E325",
"lX c #F8E520",
"zX c #F8E521",
"xX c #F8E621",
"cX c #F9E621",
"vX c #BBB145",
"bX c #DED04C",
"nX c #E1C843",
"mX c #D1C58F",
"MX c #E5DD94",
/* pixels */
"                                                                ",
"                                                                ",
"                                                                ",
"        . $                                         +           ",
"        o * C.h.                                = @ X           ",
"          # @.tXZ.                          c G k % O           ",
"            l zXtXU.                      P N.gXs &             ",
"            b ~.tXtXZ.                  Z.,XzX/.t               ",
"                U.8X,XZ.Z.{.oX,X,X{.%X{.gXtX.Xc.    m.Z.{./.    ",
"                  f.W.8XtXzXzXzXzXzXgXgX/.m.r.x.Z.{.,XzXzXT.    ",
"                    U.gXzXzXzXzXzXzXzXzX/.u.Z./.tXzXzXzXzXa.    ",
"                    oXzXzXzXzXzXzXzXzXzXtXT.,XzXzXzXzXzXzXk.    ",
"                    y.v B oXzXzXzXkXvXz O.1.,XzXzXzXzXzXzXI     ",
"                    y ; > p.zXzXzX/.: - j 1.,XzXzXzXzXW.v.      ",
"                  c._ e g ~.zX_ zXtXh w :.1.1.,XZ.r.            ",
"                  < 4 J tXtXgX' 1.tXzX6.9 7 H f.                ",
"                  , 1 0 7.8X@.gX:.5.2XC 2 6 K tXm.              ",
"                    3 A 2XzXzXzXzXzX2XZ 5 q nXkX8Xk.            ",
"                    L N.tXzXzXzXzXzXzX1.Y mXMX5XtX$X            ",
"                    f.T./.tXe.q.e.zX,X&.$XbX4XZ.a.              ",
"                    .XgXtXtX-. .-.tX/.tXtX[ V x                 ",
"                  Z.tXzXzXtX:.9.9.,XzXzXzX] 8                   ",
"                  ~.zXzXzXgX$.gX&.8XzXzXzX&XU                   ",
"                m.tXgXzXzXzX@.gX{ zXzXzXtX,XoX                  ",
"            N u.Z.~.,XzXzXzXO.zXO.zXzXzX,X/./.k.                ",
"            M _ :.:.:.tXzXzX{ zXO.zXzXtX:.5.@.~ m               ",
"              F Q 1.&.,XzXzX{ | ^ zXzXtX:.9.Q F                 ",
"                p R E ..tXzX^ u a zXtX( %.! S                   ",
"                  r d n k.M.T     U.N.f p i                     ",
"                                                                ",
"                                                                ",
"                                                                "
};
