/* XPM */
static char *default_pikachu_frame_5[] = {
/* columns rows colors chars-per-pixel */
"25 25 170 2 ",
"   c None",
".  c #393C38",
"X  c #49381E",
"o  c #443421",
"O  c #483521",
"+  c #57431E",
"@  c #5E4818",
"#  c #6D521B",
"$  c #7C6717",
"%  c #7F7518",
"&  c #4F4322",
"*  c #534421",
"=  c #584A21",
"-  c #595327",
";  c #886A0B",
":  c #9B7C07",
">  c #8A6716",
",  c #857416",
"<  c #8A7211",
"1  c #8C7017",
"2  c #8E7117",
"3  c #8A7517",
"4  c #837A19",
"5  c #8A7A18",
"6  c #9B7715",
"7  c #907C17",
"8  c #987F16",
"9  c #A27410",
"0  c #A37C11",
"q  c #D87618",
"w  c #88811A",
"e  c #9B8315",
"r  c #988117",
"t  c #9B8117",
"y  c #958A16",
"u  c #9F8E13",
"i  c #988C14",
"p  c #9E9512",
"a  c #A2830A",
"s  c #AE8B0E",
"d  c #B18C0D",
"f  c #B18E0F",
"g  c #B99B01",
"h  c #B5950F",
"j  c #A88912",
"k  c #A88F12",
"l  c #A59A15",
"z  c #AB9810",
"x  c #B49211",
"c  c #B2A40F",
"v  c #BBA20B",
"b  c #B5A90F",
"n  c #B6AB0E",
"m  c #B6AE0E",
"M  c #B8AD0E",
"N  c #ABA212",
"B  c #B7A810",
"V  c #B3AC11",
"C  c #B8A911",
"Z  c #BDB213",
"A  c #A29522",
"S  c #D8860B",
"D  c #DB820E",
"F  c #DC830F",
"G  c #C49D0B",
"H  c #C09E0D",
"J  c #C1A604",
"K  c #CDA407",
"L  c #C4A802",
"P  c #C3A20E",
"I  c #C1A40E",
"U  c #C4A50C",
"Y  c #CCA70B",
"T  c #C2AF0E",
"R  c #CDAE0B",
"E  c #D1A707",
"W  c #DAAD07",
"Q  c #D3AE0A",
"!  c #C0B30E",
"~  c #C0B60D",
"^  c #CFB009",
"/  c #C5B80C",
"(  c #C6BB0C",
")  c #CAB90A",
"_  c #CAB80B",
"`  c #CCBE0B",
"'  c #CABC0C",
"]  c #D0B402",
"[  c #DBB705",
"{  c #D1BD07",
"}  c #D3B308",
"|  c #D3B20A",
" . c #D1B708",
".. c #D0B70B",
"X. c #D3B90A",
"o. c #DBBF0A",
"O. c #DDBF09",
"+. c #C2AB12",
"@. c #C1AE17",
"#. c #D6A615",
"$. c #E5B604",
"%. c #E4BE0C",
"&. c #ECBF08",
"*. c #CEC00A",
"=. c #DCC507",
"-. c #DDC901",
";. c #DFCB01",
":. c #DBCA07",
">. c #DBCC07",
",. c #DACF07",
"<. c #D1C109",
"1. c #DDC008",
"2. c #D6C809",
"3. c #D7CA08",
"4. c #DCCF0A",
"5. c #DED106",
"6. c #E6C203",
"7. c #E2C104",
"8. c #E0C707",
"9. c #E8C603",
"0. c #EAC603",
"q. c #E1C805",
"w. c #E2C907",
"e. c #E4CA04",
"r. c #EBCA03",
"t. c #ECCB03",
"y. c #EDCE01",
"u. c #E2C908",
"i. c #F2CF05",
"p. c #E7D401",
"a. c #E0D006",
"s. c #E0D306",
"d. c #E7D005",
"f. c #E4D305",
"g. c #E0D406",
"h. c #E4D506",
"j. c #EDD202",
"k. c #EAD304",
"l. c #E5D805",
"z. c #E7D804",
"x. c #E7DA05",
"c. c #ECDA02",
"v. c #EBDC03",
"b. c #EFDD03",
"n. c #EAD905",
"m. c #F2DE02",
"M. c #F4DE01",
"N. c #EFE002",
"B. c #F1E001",
"V. c #F2E201",
"C. c #F1E003",
"Z. c #F2E202",
"A. c #F3E303",
"S. c #F4E302",
"D. c #F3E401",
"F. c #F3E501",
"G. c #F3E402",
"H. c #F4E401",
"J. c #F4E501",
"K. c #F5E501",
"L. c #F5E601",
"P. c #F6E701",
"I. c #F7E701",
"U. c #F4E502",
"Y. c #F6E801",
"T. c #F7E801",
"R. c #F7E901",
"E. c #F7EA01",
"W. c #F6E802",
"Q. c #F8EA01",
/* pixels */
"                                                  ",
"                                                  ",
"% y                                               ",
"p / >.` B                                         ",
"m l.v.h.2.<.                                      ",
"  >.5.s.l.l.) 5                                   ",
"    M N ~ 2.*.                                    ",
"          ! !                                     ",
"          n n i                                   ",
"            4 ,               . * #               ",
"              + X         @ & - 8 0 9             ",
"                o O 3 v : ; < $ I } G H T l       ",
"                  = u { L g J a ^ o.1.=.:.' C     ",
"                  w / N.p.-.-.] e.8.f.V.Y.J.f.)   ",
"                  V g.Y.Q.Q.J.V.Y.J.V.G.Y.V.4.Z   ",
"                  c s.J.Y.G.V.S.Y.Y.Q.J.i.%.@.A   ",
"                  r  .m.Q.b.w.u.J.Y.Y.r.F q #.+.z ",
"                    E 6.M.G.k.O.n.Y.Y.t.S D &.X.7 ",
"                      K [ y.9.Q  .c.j.9.$.W U k   ",
"                        d s d x } w.P Y           ",
"                            2 r 7.R 6             ",
"                              r } j >             ",
"                                h 2               ",
"                                                  ",
"                                                  "
};
