/* XPM */
static char *_000[] = {
/* columns rows colors chars-per-pixel */
"32 32 200 2 ",
"   c None",
".  c #161F2B",
"X  c #1D242B",
"o  c #3E2E28",
"O  c #323427",
"+  c #3B3320",
"@  c #383425",
"#  c #373128",
"$  c #262931",
"%  c #252E39",
"&  c #48381E",
"*  c #4E381E",
"=  c #433125",
"-  c #4A3520",
";  c #4B3523",
":  c #413925",
">  c #473F2A",
",  c #5F4817",
"<  c #7E5701",
"1  c #674316",
"2  c #694612",
"3  c #654E1E",
"4  c #68501B",
"5  c #746115",
"6  c #74601F",
"7  c #7B6018",
"8  c #78641B",
"9  c #494127",
"0  c #4B4926",
"q  c #42402A",
"w  c #414528",
"e  c #4D4828",
"r  c #564F22",
"t  c #5E4B23",
"y  c #564E29",
"u  c #5F5B24",
"i  c #575028",
"p  c #624D21",
"a  c #6D5724",
"s  c #625821",
"d  c #665827",
"f  c #755F29",
"g  c #666125",
"h  c #6B6124",
"j  c #686226",
"k  c #7C6121",
"l  c #41474C",
"z  c #B52A13",
"x  c #BD3E10",
"c  c #DA232A",
"v  c #815A01",
"b  c #855D01",
"n  c #97680B",
"m  c #9F6E0B",
"M  c #9F7701",
"N  c #8F6D14",
"B  c #8A6A1B",
"V  c #857817",
"C  c #897A15",
"Z  c #897F15",
"A  c #84761D",
"S  c #82781B",
"D  c #937714",
"F  c #9A7612",
"G  c #957814",
"H  c #927D1C",
"J  c #A87C05",
"K  c #A47B0C",
"L  c #A57410",
"P  c #A47C16",
"I  c #A87F16",
"U  c #A27D1D",
"Y  c #A07E1C",
"T  c #C95210",
"R  c #E47C12",
"E  c #8A8816",
"W  c #8A841A",
"Q  c #908915",
"!  c #958816",
"~  c #928E17",
"^  c #9C8E16",
"/  c #9E871B",
"(  c #928F1B",
")  c #A5870E",
"_  c #AB8809",
"`  c #BE8007",
"'  c #B39601",
"]  c #B49901",
"[  c #BF9109",
"{  c #B99D0B",
"}  c #A08811",
"|  c #B68613",
" . c #B58D16",
".. c #A99410",
"X. c #B69613",
"o. c #BD9614",
"O. c #AFA10E",
"+. c #B0A50E",
"@. c #B2AB0E",
"#. c #A9A312",
"$. c #B1A911",
"%. c #B5AE10",
"&. c #C59407",
"*. c #C8AB01",
"=. c #C7AA0A",
"-. c #C1AF0A",
";. c #CDAD0F",
":. c #D1A105",
">. c #D9A006",
",. c #D8A405",
"<. c #D5AB02",
"1. c #DEA803",
"2. c #DDAE07",
"3. c #D4A808",
"4. c #D6AC08",
"5. c #D0AF0D",
"6. c #C5B009",
"7. c #C4B10A",
"8. c #CFB40F",
"9. c #C5BC0B",
"0. c #C9B909",
"q. c #D5B106",
"w. c #DBB604",
"e. c #DFBA07",
"r. c #D5B209",
"t. c #D8B108",
"y. c #D1BB0E",
"u. c #D6B80C",
"i. c #D9BF0B",
"p. c #E2B202",
"a. c #E3B202",
"s. c #E3B302",
"d. c #E4B201",
"f. c #E7B501",
"g. c #EBB900",
"h. c #EBBE00",
"j. c #ECBC00",
"k. c #EEA818",
"l. c #EBB712",
"z. c #DBC301",
"x. c #DCC005",
"c. c #DEC105",
"v. c #D5CA07",
"b. c #D8C806",
"n. c #D9C806",
"m. c #D8CB07",
"M. c #D9CF07",
"N. c #D2C308",
"B. c #D3C309",
"V. c #D2C00F",
"C. c #DAC10B",
"Z. c #DFC509",
"A. c #D2C80A",
"S. c #E4C706",
"D. c #EDC000",
"F. c #EDC601",
"G. c #E7CD03",
"H. c #E3CA04",
"J. c #E8C802",
"K. c #EBC903",
"L. c #F0CE01",
"P. c #E9D201",
"I. c #EDD101",
"U. c #EBD605",
"Y. c #E4D805",
"T. c #EBDB01",
"R. c #EFD903",
"E. c #EADE03",
"W. c #F2D501",
"Q. c #F3D701",
"!. c #F4D603",
"~. c #F3DB01",
"^. c #F4DA01",
"/. c #F4DB01",
"(. c #F1DD03",
"). c #F2DC02",
"_. c #F4DC01",
"`. c #F4DD01",
"'. c #F4DE01",
"]. c #F5DC03",
"[. c #F5DE02",
"{. c #EBCC11",
"}. c #EFE002",
"|. c #EFE203",
" X c #F3E201",
".X c #F3E301",
"XX c #F4E001",
"oX c #F5E001",
"OX c #F5E201",
"+X c #F5E301",
"@X c #F6E301",
"#X c #F1E402",
"$X c #F6E401",
"%X c #F6E501",
"&X c #F6E601",
"*X c #F6E701",
"=X c #F7E701",
"-X c #F7E801",
";X c #F7E901",
":X c #828249",
/* pixels */
"                                                                ",
"                                                                ",
"                                                                ",
"r C j                                                           ",
"Q }.%X0.! g                                                     ",
"E }.;X;X;X@X7.S                                                 ",
"  A.;X;X;X;X;X;Xc.s                                             ",
"  ~ @.N.%X;X;X;X-.                                              ",
"        w u N.%XW                                               ",
"            %.m.                                                ",
"            $.v.Z 0                                             ",
"          q ..m.M.G.                                            ",
"                $ 5                 % l X , t                   ",
"                o 1 &           : - . O / I ` n                 ",
"                  # + *     H _ < J K @ c.R.5.| L a             ",
"                      = - 8 H.z.v ' P.2 B i.%X).q.S.m.^ j       ",
"                        9 7.;X%XM ] T.b <.3. .C.;X;X;X;X X=.    ",
"                        ( E.;X;X;X;X X*.;X;X_.r.K.;X;X;X;X%XA   ",
"                        #.;X;X;X;X;X;X;X;X;X;X;X;X;X;X;X#XY.+.  ",
"                        #.;X;X;X;X;X;X;X;X;X;X;X;X;X;X;X9.:XO.  ",
"                        } ~.;X;X;XI.Z.@X;X;X;X;X;X@XR k.y.f {   ",
"                        6 w.@X;X;X@Xu.o.U.;X;X;X;X>.z c l.{./.V ",
"                          [ j./.;X;X;Xe.V.;X;X;X;XK.x T !.;X4.e ",
"                            &.g.W.%X_.2.8.%X;X%XW._._._./.F.N   ",
"                              D d.f.a.,.Y ) ;Xt.1.a.a.:.G >     ",
"                                7 3   d g.L.).Y k               ",
"                                      i D.%X;.m                 ",
"                                      y h.R.P p                 ",
"                                        F X.4                   ",
"                                                                ",
"                                                                ",
"                                                                "
};
