/* XPM */
static char *_000[] = {
/* columns rows colors chars-per-pixel */
"32 32 191 2 ",
"   c None",
".  c #1A232F",
"X  c #272B2A",
"o  c #2D3127",
"O  c #252D36",
"+  c #252D39",
"@  c #313137",
"#  c #363833",
"$  c #3F3B33",
"%  c #4E3A1D",
"&  c #523E19",
"*  c #553F18",
"=  c #4D3E22",
"-  c #473E2A",
";  c #433B2E",
":  c #473E30",
">  c #3F423E",
",  c #5D4414",
"<  c #654512",
"1  c #6B4812",
"2  c #6F4D13",
"3  c #6D5F1C",
"4  c #69601A",
"5  c #72611C",
"6  c #4E4828",
"7  c #584824",
"8  c #514529",
"9  c #50442F",
"0  c #5F4F2C",
"q  c #5E5024",
"w  c #5C5129",
"e  c #5E512A",
"r  c #59552C",
"t  c #5B562E",
"y  c #524D36",
"u  c #505031",
"i  c #545332",
"p  c #675725",
"a  c #6D5521",
"s  c #6D5625",
"d  c #60522D",
"f  c #665B29",
"g  c #725F26",
"h  c #6A6023",
"j  c #6A6326",
"k  c #6F6B23",
"l  c #676829",
"z  c #7B6522",
"x  c #7C6421",
"c  c #756F22",
"v  c #776825",
"b  c #726C28",
"n  c #7E7320",
"m  c #7E7C20",
"M  c #737128",
"N  c #C63A16",
"B  c #825B01",
"V  c #B9430E",
"C  c #8B6501",
"Z  c #8C6515",
"A  c #82681F",
"S  c #8A7617",
"D  c #85711D",
"F  c #827819",
"G  c #9E7416",
"H  c #9D7917",
"J  c #9B7D14",
"K  c #9B7E15",
"L  c #9D7C14",
"P  c #A17B01",
"I  c #A17D01",
"U  c #A27C01",
"Y  c #CD4914",
"T  c #DB4C2A",
"R  c #86841D",
"E  c #8F831E",
"W  c #9F8715",
"Q  c #998F18",
"!  c #9F9613",
"~  c #9E9815",
"^  c #AE900B",
"/  c #AB990F",
"(  c #B99401",
")  c #BC960A",
"_  c #BB970E",
"`  c #A48011",
"'  c #A48612",
"]  c #A88C10",
"[  c #A08118",
"{  c #B78E10",
"}  c #B08C1A",
"|  c #A39718",
" . c #AA9318",
".. c #BA9315",
"X. c #BA9912",
"o. c #AEA70F",
"O. c #BBA10D",
"+. c #B9A60E",
"@. c #BDA90C",
"#. c #BEB60C",
"$. c #ADA714",
"%. c #848120",
"&. c #858320",
"*. c #9A8121",
"=. c #ADA82F",
"-. c #C19C0A",
";. c #C69D08",
":. c #E69C05",
">. c #CBA006",
",. c #C3A109",
"<. c #C7A208",
"1. c #CAAB08",
"2. c #D1A40C",
"3. c #D2AB0B",
"4. c #C0B40F",
"5. c #C6B40C",
"6. c #C4B60E",
"7. c #CDB30A",
"8. c #C8B509",
"9. c #CDB508",
"0. c #CCBE09",
"q. c #DBB204",
"w. c #DAB604",
"e. c #DFB905",
"r. c #D5B509",
"t. c #D0BC0B",
"y. c #D2BF0D",
"u. c #D6BD0C",
"i. c #D8BD0C",
"p. c #C7A410",
"a. c #C4A317",
"s. c #C8AA11",
"d. c #E9AD03",
"f. c #E0B302",
"g. c #ECBF00",
"h. c #CDC309",
"j. c #CAC10D",
"k. c #D8C004",
"l. c #D7C807",
"z. c #DCC801",
"x. c #DDC901",
"c. c #D7C308",
"v. c #D2C60A",
"b. c #D3C909",
"n. c #E0C601",
"m. c #E7C403",
"M. c #E7C703",
"N. c #EDC000",
"B. c #ECC101",
"V. c #E0CE01",
"C. c #E6CB06",
"Z. c #EAC803",
"A. c #EBC903",
"S. c #E9CF03",
"D. c #EEC90F",
"F. c #F1CF01",
"G. c #F3C708",
"H. c #E3D101",
"J. c #E4D004",
"K. c #EAD203",
"L. c #EFD301",
"P. c #EBD701",
"I. c #EDD401",
"U. c #F1D001",
"Y. c #F2D401",
"T. c #F4D604",
"R. c #F3D901",
"E. c #F1DA01",
"W. c #F1D902",
"Q. c #F1DC01",
"!. c #F3DC01",
"~. c #F3DD01",
"^. c #F0DD03",
"/. c #F4DC01",
"(. c #F4DD01",
"). c #F0E001",
"_. c #F2E201",
"`. c #F1E202",
"'. c #F4E101",
"]. c #F5E101",
"[. c #F5E201",
"{. c #F5E301",
"}. c #F6E301",
"|. c #F3E502",
" X c #F5E401",
".X c #F5E701",
"XX c #F6E601",
"oX c #F7E701",
"OX c #F4E602",
"+X c #F7E801",
"@X c #F7E901",
/* pixels */
"                                                                ",
"                                                                ",
"                                                                ",
"                                                                ",
"                                                                ",
"                                                                ",
" .Q j                                                           ",
"4.@XoX8.F i                                                     ",
"o.@X@X@X@X'.+.                                                  ",
"~ @X@X@X@X@X6.                      + X 6 7 a 0                 ",
"u &.&.&.m b.k                       . o 7.y.u.X.H s             ",
"          v.R M t                     O 3 q.Y.'.Q.s.t.| b       ",
"        t 6.j.l.c                         > [ 2.R.@X@X@X@Xc.    ",
"              4 #                     q 5 ,.K.Q.oX@X@X@XoX).E   ",
"              < , & @       h ! @.^ 1 k.'.oX@X@X@X@X@X@X#.=./   ",
"              ; - *     f 2 P Q.@Xn.B V.@X@X@X@X@X@X@XG.a.*.w.e ",
"                  % = D S.( C z.@XoXU H.@X@X@X@X@X@XZ.N T D.Q.S ",
"                    $ J.@XI.U z.@X@X).oX@X@X@X@X@X@XZ.V Y T.L.v ",
"                    l |.@X@XP.).@X@X@X@X@X@X@X@XR.p.3.:.d.N.`   ",
"                    $.@X@X@X@X@X@X@X@X@X@X@X@X@X@XoXC...} G 8   ",
"                    h.@X@X@X@X@X@X@XoXoX/.R.m.r.m./.oX'.i.{ Z   ",
"                    h.@X@X@X@X'.U.F.N.f.;.J z y g J <.1.9.'     ",
"                    0.@X@X@X/.g.>.) L x                         ",
"                  d e.@X@X'.] p                                 ",
"                9 _ W -.O.n                                     ",
"                e A                                             ",
"                :                                               ",
"                                                                ",
"                                                                ",
"                                                                ",
"                                                                ",
"                                                                "
};
