/* XPM */
static char *default_pikachu_frame_0[] = {
/* columns rows colors chars-per-pixel */
"25 25 189 2 ",
"   c None",
".  c #201F0D",
"X  c #2C290A",
"o  c #302D0E",
"O  c #5E5710",
"+  c #6A6213",
"@  c #746B14",
"#  c #E13816",
"$  c #897F18",
"%  c #DD4E19",
"&  c #D56F1C",
"*  c #E56E16",
"=  c #E97117",
"-  c #E47518",
";  c #E6702E",
":  c #8F8416",
">  c #B8AA11",
",  c #BFA41F",
"<  c #988D28",
"1  c #9B9021",
"2  c #A59B21",
"3  c #A59929",
"4  c #C4891A",
"5  c #C09D1C",
"6  c #D19D1E",
"7  c #E89419",
"8  c #EA901D",
"9  c #C6B70D",
"0  c #C7B714",
"q  c #CBBB10",
"w  c #CEBE13",
"e  c #C0B119",
"r  c #C2B31D",
"t  c #CFBF1B",
"y  c #CABB1C",
"u  c #DBB31F",
"i  c #E0AA19",
"p  c #E6AC1E",
"a  c #EBBA1C",
"s  c #C9B521",
"d  c #C5B826",
"f  c #CCBE22",
"g  c #C9BB26",
"h  c #C8BA2D",
"j  c #DABE39",
"k  c #E0BC21",
"l  c #E6BD25",
"z  c #E6B33C",
"x  c #D3C310",
"c  c #D4C313",
"v  c #D6C616",
"b  c #D9C914",
"n  c #DBCA16",
"m  c #D7C61B",
"M  c #D1C11F",
"N  c #D4C51F",
"B  c #DDCB1B",
"V  c #DDCC1A",
"C  c #DECF1D",
"Z  c #E8C61C",
"A  c #E1CF19",
"S  c #EECD1E",
"D  c #F1C11E",
"F  c #F2CE1F",
"G  c #E5D31A",
"H  c #E5D31B",
"J  c #E6D51D",
"K  c #E6D51F",
"L  c #E6D61F",
"P  c #EBD81C",
"I  c #EBD91D",
"U  c #EEDC1D",
"Y  c #EFDD1F",
"T  c #F1DF1E",
"R  c #F0DF1F",
"E  c #F2DF1E",
"W  c #F3E01F",
"Q  c #F3E11F",
"!  c #CFC12D",
"~  c #D6C620",
"^  c #D5C523",
"/  c #D7C723",
"(  c #D2C225",
")  c #D9C920",
"_  c #DACB21",
"`  c #DDCD22",
"'  c #DAC925",
"]  c #DDCC25",
"[  c #DDCD26",
"{  c #D0C12A",
"}  c #D9C02B",
"|  c #DACB2A",
" . c #DCCC28",
".. c #E0CF20",
"X. c #E0CF21",
"o. c #E1CF22",
"O. c #EACF20",
"+. c #E4D322",
"@. c #E5D421",
"#. c #E6D422",
"$. c #E6D523",
"%. c #E7D623",
"&. c #E6D723",
"*. c #E0D025",
"=. c #E2D126",
"-. c #E7D024",
";. c #E6D524",
":. c #E7D524",
">. c #E6D525",
",. c #E6D426",
"<. c #E6D526",
"1. c #E9D423",
"2. c #E8D623",
"3. c #EAD622",
"4. c #EED621",
"5. c #E8D624",
"6. c #E8D724",
"7. c #E9D823",
"8. c #EBD922",
"9. c #EAD823",
"0. c #EBD923",
"q. c #ECDA20",
"w. c #ECDB20",
"e. c #ECDA21",
"r. c #ECDB21",
"t. c #EDDB21",
"y. c #EEDB20",
"u. c #ECDA23",
"i. c #ECDB23",
"p. c #EDDB23",
"a. c #EEDC20",
"s. c #EFDD20",
"d. c #EEDD21",
"f. c #EDDC23",
"g. c #EEDD22",
"h. c #EFDD22",
"j. c #EEDC23",
"k. c #EFDD23",
"l. c #EFDE23",
"z. c #EAD924",
"x. c #EAD925",
"c. c #EBDA24",
"v. c #EADA25",
"b. c #ECDB24",
"n. c #EDDB26",
"m. c #ECD82B",
"M. c #F1D920",
"N. c #F0D821",
"B. c #F1DB20",
"V. c #F0DE20",
"C. c #F0DE21",
"Z. c #F1DF21",
"A. c #F2DF20",
"S. c #F2DF21",
"D. c #F0DD23",
"F. c #F0DE22",
"G. c #F0DF22",
"H. c #F0DE23",
"J. c #F1DF23",
"K. c #F2DF22",
"L. c #F5DF21",
"P. c #E2D037",
"I. c #E8D634",
"U. c #F2E020",
"Y. c #F3E020",
"T. c #F3E121",
"R. c #F2E022",
"E. c #F3E022",
"W. c #F2E023",
"Q. c #F5E121",
"!. c #F4E221",
"~. c #F5E221",
"^. c #F6E321",
"/. c #F7E321",
"(. c #F4E122",
"). c #F4E123",
"_. c #F4E222",
"`. c #F5E222",
"'. c #F6E322",
"]. c #F6E421",
"[. c #F7E421",
"{. c #F7E422",
"}. c #F8E520",
"|. c #F8E421",
" X c #F8E521",
".X c #F9E621",
"XX c #FBE720",
"oX c #DBAF4B",
"OX c #E0CA59",
/* pixels */
"                                                  ",
"                                                  ",
"                                                  ",
"      X O )                           + .         ",
"        : ~ i.                      r @ o         ",
"          ) G.f.                ` +.~ $           ",
"            i.i.7.            i.f.c.~     7.7.    ",
"              ;.i.G.(.(.(.(.(.G.5. .] c.G.W.f.@.  ",
"                f.(. X X X X(.G.3.@.G.(. X[.7.'   ",
"                g h ;.[. Xn.! d J G.[. X X(.;.{   ",
"                2 < ( G.[.] 3 1 C T (.G.G.n.*.    ",
"              & 4 , o.i.f.@.s 5 i Z 3.c.          ",
"              % * a M.f.i.G.S 7 = p -.            ",
"              # - D L.(.(.(.F 8 ; z m.c.          ",
"                u 4.[. X X[.M.l oXOXI.;.          ",
"                @.f.Q T Q Q G.c.P.j }             ",
"              7.W.[.W.U U W.(.(.O.6               ",
"              i.(. XW.f.U W. X XM.k               ",
"            *.f.(. XW.f.i.T  X[.G.3.              ",
"          f o.i.G. XW.f.i.G. XW.f.J M             ",
"          y v G i.(.G.G A I [.G.I n t             ",
"            q w m @.;.B c J i.V n x               ",
"              > e ~ |       o.0 9                 ",
"                                                  ",
"                                                  "
};
