/* XPM */
static char *_000[] = {
/* columns rows colors chars-per-pixel */
"32 32 178 2 ",
"   c None",
".  c #161F2B",
"X  c #1F2833",
"o  c #2E2B2B",
"O  c #2F2B2E",
"+  c #2E312F",
"@  c #3B3523",
"#  c #3D3325",
"$  c #35352F",
"%  c #3B3A2B",
"&  c #3F3D2F",
"*  c #242C37",
"=  c #262D37",
"-  c #242D38",
";  c #252E39",
":  c #362F30",
">  c #293138",
",  c #2F3739",
"<  c #3C3530",
"1  c #3E3D31",
"2  c #35393D",
"3  c #4A3D1B",
"4  c #493924",
"5  c #574013",
"6  c #734C0C",
"7  c #794F0B",
"8  c #7E5701",
"9  c #634416",
"0  c #6D551A",
"q  c #7A5A17",
"w  c #71551B",
"e  c #7C6910",
"r  c #7D641C",
"t  c #504424",
"y  c #544F27",
"u  c #514D2E",
"i  c #5C5325",
"p  c #5A5525",
"a  c #5F5A29",
"s  c #42453D",
"d  c #544A32",
"f  c #655327",
"g  c #695421",
"h  c #6D5A25",
"j  c #61512B",
"k  c #645328",
"l  c #635928",
"z  c #65592B",
"x  c #715D21",
"c  c #665C31",
"v  c #655D32",
"b  c #6D6D23",
"n  c #6D6129",
"m  c #756C20",
"M  c #303842",
"N  c #777843",
"B  c #B73910",
"V  c #C23713",
"C  c #D71B29",
"Z  c #906701",
"A  c #93660E",
"S  c #826718",
"D  c #816C1B",
"F  c #9B6F13",
"G  c #877315",
"H  c #8D7514",
"J  c #8C701A",
"K  c #88721D",
"L  c #8D7D1E",
"P  c #9B7512",
"I  c #957F18",
"U  c #9B7A1B",
"Y  c #A17F01",
"T  c #A3710D",
"R  c #AA770F",
"E  c #A17D12",
"W  c #94692F",
"Q  c #837523",
"!  c #8F7921",
"~  c #8E7E20",
"^  c #C45A0C",
"/  c #8D841A",
"(  c #8E871A",
")  c #908218",
"_  c #928E1B",
"`  c #908C1C",
"'  c #9E9512",
"]  c #AD8501",
"[  c #AF9E0E",
"{  c #B39306",
"}  c #A5831B",
"|  c #A09010",
" . c #AB9914",
".. c #B79616",
"X. c #BA9213",
"o. c #BC9313",
"O. c #C09701",
"+. c #CB9D05",
"@. c #CB9C0B",
"#. c #C6A80E",
"$. c #C8AD08",
"%. c #D9A702",
"&. c #D6A905",
"*. c #C9B509",
"=. c #CBB508",
"-. c #D3BB01",
";. c #D7BB07",
":. c #DABD03",
">. c #D4B70B",
",. c #D3B70C",
"<. c #C4A211",
"1. c #C6AD13",
"2. c #E1B105",
"3. c #E0B305",
"4. c #EEB307",
"5. c #E3BD03",
"6. c #EFB014",
"7. c #F0B712",
"8. c #CDC209",
"9. c #D6C006",
"0. c #DDC101",
"q. c #D9C706",
"w. c #DECB01",
"e. c #DBC906",
"r. c #D9CB06",
"t. c #DACF06",
"y. c #DCCE06",
"u. c #D1C708",
"i. c #D7C30C",
"p. c #DBC40B",
"a. c #DECA0A",
"s. c #E7C502",
"d. c #E3C604",
"f. c #EAC302",
"g. c #E9C501",
"h. c #EBC401",
"j. c #E0CD01",
"k. c #E4CA07",
"l. c #EAC802",
"z. c #EFCA00",
"x. c #ECCE03",
"c. c #E2CA08",
"v. c #E3CB08",
"b. c #F1C405",
"n. c #E7D103",
"m. c #E3D104",
"M. c #E6D704",
"N. c #EDD302",
"B. c #EFD502",
"V. c #EDDB01",
"C. c #EADD03",
"Z. c #E5D108",
"A. c #F1D201",
"S. c #F0D401",
"D. c #F1D501",
"F. c #F4D404",
"G. c #F3D901",
"H. c #F3DB01",
"J. c #F2DB02",
"K. c #F5DB03",
"L. c #F4DE01",
"P. c #F5DF01",
"I. c #F0E101",
"U. c #F3E102",
"Y. c #F0E302",
"T. c #F3E202",
"R. c #F5E201",
"E. c #F5E401",
"W. c #F6E401",
"Q. c #F6E501",
"!. c #F5E601",
"~. c #F5E701",
"^. c #F6E601",
"/. c #F7E701",
"(. c #F5E702",
"). c #F6E801",
"_. c #F7E801",
"`. c #F7E901",
/* pixels */
"                                                                ",
"                                                                ",
"                                                                ",
"                                                                ",
"                                                                ",
">                                                               ",
"H.L.' m                                                         ",
"`.`.`.`.m.[ u                                                   ",
"`.`.`.`.`.`./                                                   ",
"` ` _ n.C.~./                         ; = 2                     ",
"        X u.n                           + q A w                 ",
"          u.p                     ; . . #.p.<.X.F j             ",
"          =.M.q.a                     M ! `.`.~.k.,.r.y. .c     ",
"            , e y                 % O r H o.1.v.`.`.`.`.`.;.    ",
"              5 3 #         < 0 =.{ 7 :.H.H.D.i.~.`.`.`.I.8.)   ",
"              o @ 9       z 6 Y ~.0.8 w.`.`.`.`.`.`.`.`.t.N |   ",
"                  4 : = l d.O.Z V.~.] j.`.`.`.`.`.`.4.6.Z.W $.s ",
"                      1 9.`.R.-.I.`.`.`.`.`.`.`.`.x.B C 7.`.~.~ ",
"                      b `.`.`.`.`.`.`.`.`.`.`.`.`.H.^ V b.`.v.c ",
"                      b `.`.`.`.`.`.`.`.`.`.`.`.`.`.K.F.R.g.J   ",
"                      b `.`.`.`.`.`.`.`.`.`.`.`.s.@.3.&.E d     ",
"                        r.`.`.`.`.`.R.H.z.f.5.L.I.} R $         ",
"                        Q N.`.`.`.I.3.+.S i g %.~.>.T           ",
"                          U D.`.`.~.L         f l.a.k           ",
"                            K B.~.g.h           P I             ",
"                            t ..A.x                             ",
"                              & G D                             ",
"                                                                ",
"                                                                ",
"                                                                ",
"                                                                ",
"                                                                "
};
