/* XPM */
static char *default_pikachu_frame_7[] = {
/* columns rows colors chars-per-pixel */
"25 25 156 2 ",
"   c None",
".  c #4D3D1F",
"X  c #4F3D1F",
"o  c #483D23",
"O  c #4D3C21",
"+  c #63571E",
"@  c #6F5F1E",
"#  c #78691E",
"$  c #454227",
"%  c #524220",
"&  c #524221",
"*  c #575324",
"=  c #655528",
"-  c #6E6D27",
";  c #9E7E09",
":  c #876F1E",
">  c #86701D",
",  c #84761C",
"<  c #867B18",
"1  c #977517",
"2  c #987F1A",
"3  c #847320",
"4  c #D67B0F",
"5  c #88811E",
"6  c #8B881E",
"7  c #8E8B1D",
"8  c #988515",
"9  c #9F8717",
"0  c #968118",
"q  c #938E1A",
"w  c #A78A08",
"e  c #A38B0C",
"r  c #B09406",
"t  c #B5920F",
"y  c #A68312",
"u  c #A38314",
"i  c #A08B15",
"p  c #A18A19",
"a  c #A69014",
"s  c #A79F15",
"d  c #AC9813",
"f  c #AF9812",
"g  c #A19719",
"h  c #B19613",
"j  c #B89512",
"k  c #B49913",
"l  c #B89E11",
"z  c #B89D12",
"x  c #B39F18",
"c  c #A8A115",
"v  c #A9A315",
"b  c #AAA214",
"n  c #ADA315",
"m  c #B0A614",
"M  c #BAAD10",
"N  c #BBAD11",
"B  c #BBAF11",
"V  c #BDB110",
"C  c #C09D0D",
"Z  c #D2940B",
"A  c #D7990A",
"S  c #DC9A0F",
"D  c #CF8D18",
"F  c #DC8211",
"G  c #C0A503",
"H  c #C7AD05",
"J  c #C3A50D",
"K  c #CBA508",
"L  c #C2AE09",
"P  c #CCB100",
"I  c #CEB302",
"U  c #C7B10B",
"Y  c #CEB008",
"T  c #CDB30A",
"R  c #CCB00C",
"E  c #CDB30C",
"W  c #CBB80B",
"Q  c #CABC0C",
"!  c #CABD0C",
"~  c #D6B406",
"^  c #D4B907",
"/  c #D2BE07",
"(  c #DABF07",
")  c #DEBF05",
"_  c #D6B50C",
"`  c #DEB608",
"'  c #D1BE09",
"]  c #D5BE09",
"[  c #DBB90A",
"{  c #C8AC12",
"}  c #C5B711",
"|  c #CDB612",
" . c #E2B507",
".. c #CAC00B",
"X. c #CEC50C",
"o. c #D9C303",
"O. c #DAC604",
"+. c #DCC807",
"@. c #D7C208",
"#. c #D1C40A",
"$. c #D7C70A",
"%. c #DEC008",
"&. c #D3CA0A",
"*. c #D7CD0A",
"=. c #DBCE09",
"-. c #DFD307",
";. c #E1C905",
":. c #E5C905",
">. c #E5CE06",
",. c #E8CB03",
"<. c #F0CF04",
"1. c #E3D001",
"2. c #E4D101",
"3. c #E6D400",
"4. c #E3D205",
"5. c #E4D106",
"6. c #E1D607",
"7. c #E5D704",
"8. c #E6D406",
"9. c #EED302",
"0. c #E8D601",
"q. c #EDD703",
"w. c #E9D204",
"e. c #EAD307",
"r. c #E9D604",
"t. c #ECD604",
"y. c #EEDE01",
"u. c #EFDF01",
"i. c #EFDD02",
"p. c #ECDE03",
"a. c #EDDF04",
"s. c #E0D208",
"d. c #F1DD01",
"f. c #EEE103",
"g. c #F0E001",
"h. c #F1E101",
"j. c #F3E301",
"k. c #F0E102",
"l. c #F2E402",
"z. c #F4E401",
"x. c #F5E501",
"c. c #F6E401",
"v. c #F5E601",
"b. c #F6E601",
"n. c #F6E701",
"m. c #F5E602",
"M. c #F6E702",
"N. c #F8E701",
"B. c #F7E901",
"V. c #F7EA01",
"C. c #F7EB01",
"Z. c #F8E901",
"A. c #F8EA01",
"S. c #F8EB01",
"D. c #F8EC01",
"F. c #F8ED01",
/* pixels */
"                                                  ",
"                                                  ",
"                                                  ",
"                                                  ",
"                                                  ",
"B B !                                             ",
"..p.7.! V                                         ",
"c X.*.-.#.B                   $ # >               ",
"- 6 7 c c q                   * d E E k           ",
"      g n s 5                   3 l %.>.7.s.$.@.  ",
"          < + o               8 d ] q.z.z.f.=.}   ",
"            & X       e / H w L 5.h.z.B.N.w.| x 0 ",
"            O X #   ; r O.o.G 1.S.S.B.D.<.S D { i ",
"              & , ' I P 3.h.2.p.B.B.B.l. .4 F [ a ",
"                m a.h.0.p.D.D.S.B.B.z.t.` A Z C 9 ",
"                &.l.S.B.B.z.z.z.p.r.5.w.:._ j 1   ",
"                6.z.S.z.d.9.,.) T h p l ^ ( J y   ",
"                4.z.h.;.~ K t u                   ",
"              2 T +.W U                           ",
"            = :                                   ",
"                                                  ",
"                                                  ",
"                                                  ",
"                                                  ",
"                                                  "
};
