/* XPM */
static char *_000[] = {
/* columns rows colors chars-per-pixel */
"32 32 204 2 ",
"   c None",
".  c #18202B",
"X  c #1F262B",
"o  c #18202C",
"O  c #1A232F",
"+  c #252B2F",
"@  c #312B2C",
"#  c #393127",
"$  c #30372F",
"%  c #39322E",
"&  c #3E3E2E",
"*  c #332F31",
"=  c #2D3332",
"-  c #363B30",
";  c #383E33",
":  c #383D3D",
">  c #543D17",
",  c #503E19",
"<  c #443121",
"1  c #413421",
"2  c #463E32",
"3  c #66480D",
"4  c #7F5701",
"5  c #624C17",
"6  c #6A581B",
"7  c #71551D",
"8  c #7A5A19",
"9  c #77650F",
"0  c #6B631E",
"q  c #786317",
"w  c #796618",
"e  c #79601C",
"r  c #7B741F",
"t  c #42402A",
"y  c #4D4C2B",
"u  c #554F25",
"i  c #5F4D24",
"p  c #54492C",
"a  c #494537",
"s  c #41443C",
"d  c #554D33",
"f  c #695223",
"g  c #615028",
"h  c #605728",
"j  c #6C5928",
"k  c #745E22",
"l  c #775F24",
"z  c #6C5B33",
"x  c #686223",
"c  c #6D6720",
"v  c #6B6C25",
"b  c #67682C",
"n  c #766C26",
"m  c #766E27",
"M  c #757526",
"N  c #7E7721",
"B  c #787026",
"V  c #7F7D21",
"C  c #73703E",
"Z  c #303842",
"A  c #C4201C",
"S  c #875F01",
"D  c #835905",
"F  c #BB540C",
"G  c #9B7A04",
"H  c #8A6517",
"J  c #8C6616",
"K  c #8D7516",
"L  c #88711A",
"P  c #8D731E",
"I  c #987B16",
"U  c #9A7A17",
"Y  c #957618",
"T  c #917D1B",
"R  c #957E1A",
"E  c #AB7307",
"W  c #AC780E",
"Q  c #B07505",
"!  c #A77F13",
"~  c #867620",
"^  c #857920",
"/  c #CD5710",
"(  c #E77D1A",
")  c #E77021",
"_  c #86841E",
"`  c #8D831B",
"'  c #8F841D",
"]  c #94891B",
"[  c #AD8701",
"{  c #B98F0C",
"}  c #AC990E",
"|  c #BC9F01",
" . c #BA9509",
".. c #BB960D",
"X. c #B59B0F",
"o. c #BF9B0B",
"O. c #AE8511",
"+. c #A68A15",
"@. c #AB8918",
"#. c #B58411",
"$. c #B58A13",
"%. c #AA9312",
"&. c #AB9314",
"*. c #A59D16",
"=. c #A99E12",
"-. c #B79611",
";. c #B89611",
":. c #BB9A15",
">. c #BFA401",
",. c #B4A00F",
"<. c #B9A30E",
"1. c #BBA50D",
"2. c #B2A80F",
"3. c #BDA80F",
"4. c #A7A21A",
"5. c #B4AC11",
"6. c #BB8F26",
"7. c #C79E07",
"8. c #C3950A",
"9. c #DC9B07",
"0. c #C39710",
"q. c #C7A007",
"w. c #C4AA01",
"e. c #C4AB01",
"r. c #CFAD01",
"t. c #CEA20B",
"y. c #DEAF03",
"u. c #D1A20A",
"i. c #D3AD0C",
"p. c #CDB207",
"a. c #CAB60C",
"s. c #DABE01",
"d. c #DBBA07",
"f. c #DEB804",
"g. c #D6B60B",
"h. c #D7BE0B",
"j. c #C8A610",
"k. c #E7AB06",
"l. c #E0BF07",
"z. c #EAB805",
"x. c #DCC001",
"c. c #DDC005",
"v. c #D7CA07",
"b. c #DACF07",
"n. c #DDCE06",
"m. c #D0C609",
"M. c #DDC60A",
"N. c #EEC200",
"B. c #EBCA01",
"V. c #EBCB03",
"C. c #E8CE03",
"Z. c #F0CB01",
"A. c #F0CE01",
"S. c #F2CE08",
"D. c #E7D101",
"F. c #E5D304",
"G. c #E3D705",
"H. c #E5D704",
"J. c #ECD203",
"K. c #EED403",
"L. c #EED703",
"P. c #EAD505",
"I. c #E6DA05",
"U. c #ECDB01",
"Y. c #EFDA03",
"T. c #EFDB03",
"R. c #ECDC03",
"E. c #EBDE04",
"W. c #F0D001",
"Q. c #F1D101",
"!. c #F1D201",
"~. c #F2D601",
"^. c #F4D602",
"/. c #F3D801",
"(. c #F3DB01",
"). c #F0DA02",
"_. c #F1DA02",
"`. c #F1DB02",
"'. c #F0DF02",
"]. c #F0DE03",
"[. c #F4DD01",
"{. c #F4DF01",
"}. c #F1E002",
"|. c #F0E102",
" X c #F3E002",
".X c #F3E102",
"XX c #F1E302",
"oX c #F5E001",
"OX c #F5E101",
"+X c #F5E201",
"@X c #F3E403",
"#X c #F5E401",
"$X c #F5E501",
"%X c #F6E401",
"&X c #F6E501",
"*X c #F6E601",
"=X c #F6E701",
"-X c #F7E701",
";X c #F5E402",
":X c #F4E602",
">X c #F7E602",
",X c #F6E801",
"<X c #F7E801",
"1X c #F7E901",
/* pixels */
"                                                                ",
"                                                                ",
"                                                                ",
"                                                                ",
"x V m                                                           ",
"` 1XR.v.=.N                                                     ",
"v 1X1X1X1X|.n.5.~                                               ",
"b E.1X1X1X1X1X1X<.                                              ",
"  m.1X1X1X1X1X1Xr                                               ",
"  ; - - - - $ I.=                                               ",
"            h '.G.|.]                                           ",
"            & c   9 u                                           ",
"                  > , 1 *               O + i                   ",
"                  @   % 2   ^ w 3 q 0 X O T O.H f               ",
"                      # 5 p.|.w.4 >./.6 . } T.g.$.J a           ",
"                        3.=X1Xw.S s.1XG < K Z.oXK.:.@.,.m       ",
"                      *.=X1X1XD.| T.1X[ D d.0.i.~.=X/.=X'.a.    ",
"                    M b.1X1X1X1X1X1X1Xx.r.=XJ.l.V.1X1X1X1X=X&.  ",
"                    _ 1X1X1X1X1X1X1X1X1X1X1X1X1X1X1X1X1X1X4.H.  ",
"                    _ 1X1X1X1X1X1X1X1X1X1X1X1X1X1X1X1X1X1XC F.  ",
"                    ' 1X1X1X1X1X1X1X1X1X1X1X1X1X1X=Xk.) S.6.C.t ",
"                    2.1X1X1X|.|./.Q.[.=X1X1X1X1X1X/.F A ( =X=XX.",
"                    1.T.oXQ.-.o.q.7.y.N.oX1X1X1X1X=X9./ z.1X'.B ",
"                  y %.P R L p       k I ;.K.1X=XM.A./.^./.c.+.  ",
"                  : s Z                   8.[.@Xj.u.t...Y d     ",
"                                          j f.=Xh.W 8           ",
"                                            I Q.P.#.E           ",
"                                               .V.! Q 7         ",
"                                              l { e z g         ",
"                                                                ",
"                                                                ",
"                                                                "
};
