/* XPM */
static char *default_pikachu_frame_4[] = {
/* columns rows colors chars-per-pixel */
"25 25 176 2 ",
"   c None",
".  c #3E3426",
"X  c #3E3E26",
"o  c #31322C",
"O  c #3B342B",
"+  c #443A29",
"@  c #51451F",
"#  c #604F18",
"$  c #665819",
"%  c #71621A",
"&  c #7C6C1A",
"*  c #7F7217",
"=  c #7C711D",
"-  c #5C4B24",
";  c #555023",
":  c #56532F",
">  c #6B6B23",
",  c #686824",
"<  c #696924",
"1  c #767421",
"2  c #7D7125",
"3  c #886E0C",
"4  c #8A710D",
"5  c #876118",
"6  c #81661F",
"7  c #85651C",
"8  c #966810",
"9  c #857D1C",
"0  c #977115",
"q  c #967E16",
"w  c #9B7B16",
"e  c #9D7C15",
"r  c #917E1E",
"t  c #9A7F1A",
"y  c #A6780F",
"u  c #D97613",
"i  c #9C8009",
"p  c #9C800E",
"a  c #8F8019",
"s  c #938E19",
"d  c #958D19",
"f  c #98891A",
"g  c #9C9518",
"h  c #A58905",
"j  c #A88B05",
"k  c #B78F0E",
"l  c #AF9D0C",
"z  c #B1910F",
"x  c #B3900E",
"c  c #B7930F",
"v  c #A78612",
"b  c #AA8B15",
"n  c #A79310",
"m  c #A59710",
"M  c #AF9111",
"N  c #AC9A12",
"B  c #A89D14",
"V  c #AF9F14",
"C  c #A59F18",
"Z  c #B09C14",
"A  c #BFA00D",
"S  c #BFAB0E",
"D  c #BBAE0D",
"F  c #BEB20E",
"G  c #AAA214",
"H  c #ACA614",
"J  c #B0A210",
"K  c #B3A913",
"L  c #B5A811",
"P  c #B9A819",
"I  c #B7B012",
"U  c #DD8C0B",
"Y  c #E09A0A",
"T  c #C5A50B",
"R  c #C3A30E",
"E  c #C8A30A",
"W  c #C7AB0B",
"Q  c #C6AC0A",
"!  c #C0AF0D",
"~  c #CDAB0A",
"^  c #CBAD0B",
"/  c #D4AF06",
"(  c #D6AC09",
")  c #CEB101",
"_  c #CDB301",
"`  c #C8B307",
"'  c #C4B50B",
"]  c #C2B20E",
"[  c #C1B40E",
"{  c #C1B50E",
"}  c #C8B40B",
"|  c #CCB60C",
" . c #C5B90D",
".. c #C5B80E",
"X. c #C5BC0D",
"o. c #CCBF0C",
"O. c #D4B107",
"+. c #D3B704",
"@. c #DFB607",
"#. c #D2B801",
"$. c #D5B509",
"%. c #D6B808",
"&. c #D4BA09",
"*. c #D0BF0B",
"=. c #C0B610",
"-. c #C2B512",
";. c #D9BB12",
":. c #E2A707",
">. c #EAB408",
",. c #E5A312",
"<. c #CDC10D",
"1. c #DAC503",
"2. c #DBC206",
"3. c #DCC107",
"4. c #DFC407",
"5. c #DAC008",
"6. c #D9C20C",
"7. c #D2C80A",
"8. c #D4C909",
"9. c #D6C809",
"0. c #D4C90A",
"q. c #DBCE08",
"w. c #DACF08",
"e. c #E0C405",
"r. c #E0C607",
"t. c #E3C606",
"y. c #E5C605",
"u. c #E7CB05",
"i. c #E0CD06",
"p. c #E3CD07",
"a. c #ECC309",
"s. c #E3D706",
"d. c #E5D506",
"f. c #E8D601",
"g. c #E9D802",
"h. c #EBD902",
"j. c #ECDB01",
"k. c #EDDD02",
"l. c #EEDD02",
"z. c #E8D804",
"x. c #EAD805",
"c. c #E8DB05",
"v. c #ECDE04",
"b. c #E2D309",
"n. c #F2D204",
"m. c #F0DC01",
"M. c #F3DD01",
"N. c #F0DF01",
"B. c #F3DE01",
"V. c #F1DD02",
"C. c #EEE003",
"Z. c #EFE203",
"A. c #ECE004",
"S. c #F1E001",
"D. c #F3E301",
"F. c #F1E002",
"G. c #F1E202",
"H. c #F1E302",
"J. c #F2E401",
"K. c #F5E401",
"L. c #F4E501",
"P. c #F4E601",
"I. c #F5E601",
"U. c #F4E701",
"Y. c #F6E700",
"T. c #F6E701",
"R. c #F4E502",
"E. c #F7E602",
"W. c #F5E801",
"Q. c #F6E801",
"!. c #F7E901",
"~. c #F7EA01",
"^. c #F8E801",
"/. c #F8EA00",
"(. c #F8EA01",
"). c #F8EB01",
/* pixels */
"                                                  ",
"                                                  ",
"                                                  ",
"d K ..B                                           ",
"g <.q...{                                         ",
"C c./.G.v.0.L                                     ",
"C X.7.0.q.0.F                                     ",
"  , > , 1 s G                                     ",
"          9 D m =                                 ",
"              # @ O             o -               ",
"                . + a n 4 3 * X ; q w 7           ",
"                  & ! ` h j l $ % W ^ b t f       ",
"                  ' c.f._ #.1.i p $.t.5.| ] {     ",
"                H s.Q.P.h.j.h._ +.3.u.m.P.P.d.*.  ",
"                I A./.Q././.P.G.G.J.G.P./.P.b.=.  ",
"                =.G.Q.Q.Q.Q.Q././.Q.Q.P.n.a.;.P J ",
"                o.G.P.C.v.m.m.P.Q.Q./.B.Y u ,.6.N ",
"                } r.&.S Q / O.r.m.P.Q.m.:.U >.p.V ",
"              : 2 r           M &.v.c.t.@.( R Z   ",
"                                  2.p.~ k x       ",
"                                  A 3.E y 8       ",
"                                  z T x 0 5       ",
"                                    v e 6         ",
"                                                  ",
"                                                  "
};
